<svg width="11" height="43" viewBox="0 0 11 43" fill="none" xmlns="http://www.w3.org/2000/svg">
<path d="M7.6 7.2C6.58667 7.2 5.74667 6.89333 5.08 6.28C4.44 5.64 4.12 4.85333 4.12 3.92C4.12 2.98667 4.44 2.21333 5.08 1.6C5.74667 0.959998 6.58667 0.639998 7.6 0.639998C8.58667 0.639998 9.4 0.959998 10.04 1.6C10.68 2.21333 11 2.98667 11 3.92C11 4.85333 10.68 5.64 10.04 6.28C9.4 6.89333 8.58667 7.2 7.6 7.2ZM10.36 35.64C10.36 38.0933 9.74667 39.8533 8.52 40.92C7.32 42.0133 5.58667 42.56 3.32 42.56H0.84V37.8H2.44C3.29333 37.8 3.89333 37.6267 4.24 37.28C4.58667 36.96 4.76 36.4267 4.76 35.68V9.84H10.36V35.64Z" fill="#090909"/>
</svg>
