<svg width="180" height="43" viewBox="0 0 180 43" fill="none" xmlns="http://www.w3.org/2000/svg">
<path d="M7.6 7.2C6.58667 7.2 5.74667 6.89333 5.08 6.28C4.44 5.64 4.12 4.85333 4.12 3.92C4.12 2.98667 4.44 2.21333 5.08 1.6C5.74667 0.959998 6.58667 0.639998 7.6 0.639998C8.58667 0.639998 9.4 0.959998 10.04 1.6C10.68 2.21333 11 2.98667 11 3.92C11 4.85333 10.68 5.64 10.04 6.28C9.4 6.89333 8.58667 7.2 7.6 7.2ZM10.36 35.64C10.36 38.0933 9.74667 39.8533 8.52 40.92C7.32 42.0133 5.58667 42.56 3.32 42.56H0.84V37.8H2.44C3.29333 37.8 3.89333 37.6267 4.24 37.28C4.58667 36.96 4.76 36.4267 4.76 35.68V9.84H10.36V35.64ZM35.7928 20.44C35.7928 21.24 35.7395 21.96 35.6328 22.6H19.4328C19.5661 24.2 20.1261 25.4533 21.1128 26.36C22.0995 27.2667 23.3128 27.72 24.7528 27.72C26.8328 27.72 28.3128 26.8267 29.1928 25.04H35.2328C34.5928 27.1733 33.3661 28.9333 31.5528 30.32C29.7395 31.68 27.5128 32.36 24.8728 32.36C22.7395 32.36 20.8195 31.8933 19.1128 30.96C17.4328 30 16.1128 28.6533 15.1528 26.92C14.2195 25.1867 13.7528 23.1867 13.7528 20.92C13.7528 18.6267 14.2195 16.6133 15.1528 14.88C16.0861 13.1467 17.3928 11.8133 19.0728 10.88C20.7528 9.94667 22.6861 9.48 24.8728 9.48C26.9795 9.48 28.8595 9.93333 30.5128 10.84C32.1928 11.7467 33.4861 13.04 34.3928 14.72C35.3261 16.3733 35.7928 18.28 35.7928 20.44ZM29.9928 18.84C29.9661 17.4 29.4461 16.2533 28.4328 15.4C27.4195 14.52 26.1795 14.08 24.7128 14.08C23.3261 14.08 22.1528 14.5067 21.1928 15.36C20.2595 16.1867 19.6861 17.3467 19.4728 18.84H29.9928ZM49.0203 32.36C46.887 32.36 44.967 31.8933 43.2603 30.96C41.5536 30 40.207 28.6533 39.2203 26.92C38.2603 25.1867 37.7803 23.1867 37.7803 20.92C37.7803 18.6533 38.2736 16.6533 39.2603 14.92C40.2736 13.1867 41.647 11.8533 43.3803 10.92C45.1136 9.96 47.047 9.48 49.1803 9.48C51.3136 9.48 53.247 9.96 54.9803 10.92C56.7136 11.8533 58.0736 13.1867 59.0603 14.92C60.0736 16.6533 60.5803 18.6533 60.5803 20.92C60.5803 23.1867 60.0603 25.1867 59.0203 26.92C58.007 28.6533 56.6203 30 54.8603 30.96C53.127 31.8933 51.1803 32.36 49.0203 32.36ZM49.0203 27.48C50.0336 27.48 50.9803 27.24 51.8603 26.76C52.767 26.2533 53.487 25.5067 54.0203 24.52C54.5536 23.5333 54.8203 22.3333 54.8203 20.92C54.8203 18.8133 54.2603 17.2 53.1403 16.08C52.047 14.9333 50.7003 14.36 49.1003 14.36C47.5003 14.36 46.1536 14.9333 45.0603 16.08C43.9936 17.2 43.4603 18.8133 43.4603 20.92C43.4603 23.0267 43.9803 24.6533 45.0203 25.8C46.087 26.92 47.4203 27.48 49.0203 27.48ZM76.2681 9.52C78.9081 9.52 81.0415 10.36 82.6681 12.04C84.2948 13.6933 85.1081 16.0133 85.1081 19V32H79.5081V19.76C79.5081 18 79.0681 16.6533 78.1881 15.72C77.3081 14.76 76.1081 14.28 74.5881 14.28C73.0415 14.28 71.8148 14.76 70.9081 15.72C70.0281 16.6533 69.5881 18 69.5881 19.76V32H63.9881V9.84H69.5881V12.6C70.3348 11.64 71.2815 10.8933 72.4281 10.36C73.6015 9.8 74.8815 9.52 76.2681 9.52ZM98.4134 9.48C100.067 9.48 101.52 9.81333 102.773 10.48C104.027 11.12 105.013 11.96 105.733 13V9.84H111.373V32.16C111.373 34.2133 110.96 36.04 110.133 37.64C109.307 39.2667 108.067 40.5467 106.413 41.48C104.76 42.44 102.76 42.92 100.413 42.92C97.2668 42.92 94.6801 42.1867 92.6534 40.72C90.6534 39.2533 89.5201 37.2533 89.2534 34.72H94.8134C95.1068 35.7333 95.7334 36.5333 96.6934 37.12C97.6801 37.7333 98.8668 38.04 100.253 38.04C101.88 38.04 103.2 37.5467 104.213 36.56C105.227 35.6 105.733 34.1333 105.733 32.16V28.72C105.013 29.76 104.013 30.6267 102.733 31.32C101.48 32.0133 100.04 32.36 98.4134 32.36C96.5468 32.36 94.8401 31.88 93.2934 30.92C91.7468 29.96 90.5201 28.6133 89.6134 26.88C88.7334 25.12 88.2934 23.1067 88.2934 20.84C88.2934 18.6 88.7334 16.6133 89.6134 14.88C90.5201 13.1467 91.7334 11.8133 93.2534 10.88C94.8001 9.94667 96.5201 9.48 98.4134 9.48ZM105.733 20.92C105.733 19.56 105.467 18.4 104.933 17.44C104.4 16.4533 103.68 15.7067 102.773 15.2C101.867 14.6667 100.893 14.4 99.8534 14.4C98.8134 14.4 97.8534 14.6533 96.9734 15.16C96.0934 15.6667 95.3734 16.4133 94.8134 17.4C94.2801 18.36 94.0134 19.5067 94.0134 20.84C94.0134 22.1733 94.2801 23.3467 94.8134 24.36C95.3734 25.3467 96.0934 26.1067 96.9734 26.64C97.8801 27.1733 98.8401 27.44 99.8534 27.44C100.893 27.44 101.867 27.1867 102.773 26.68C103.68 26.1467 104.4 25.4 104.933 24.44C105.467 23.4533 105.733 22.28 105.733 20.92ZM114.703 20.84C114.703 18.6 115.143 16.6133 116.023 14.88C116.929 13.1467 118.143 11.8133 119.663 10.88C121.209 9.94667 122.929 9.48 124.823 9.48C126.476 9.48 127.916 9.81333 129.143 10.48C130.396 11.1467 131.396 11.9867 132.143 13V9.84H137.783V32H132.143V28.76C131.423 29.8 130.423 30.6667 129.143 31.36C127.889 32.0267 126.436 32.36 124.783 32.36C122.916 32.36 121.209 31.88 119.663 30.92C118.143 29.96 116.929 28.6133 116.023 26.88C115.143 25.12 114.703 23.1067 114.703 20.84ZM132.143 20.92C132.143 19.56 131.876 18.4 131.343 17.44C130.809 16.4533 130.089 15.7067 129.183 15.2C128.276 14.6667 127.303 14.4 126.263 14.4C125.223 14.4 124.263 14.6533 123.383 15.16C122.503 15.6667 121.783 16.4133 121.223 17.4C120.689 18.36 120.423 19.5067 120.423 20.84C120.423 22.1733 120.689 23.3467 121.223 24.36C121.783 25.3467 122.503 26.1067 123.383 26.64C124.289 27.1733 125.249 27.44 126.263 27.44C127.303 27.44 128.276 27.1867 129.183 26.68C130.089 26.1467 130.809 25.4 131.343 24.44C131.876 23.4533 132.143 22.28 132.143 20.92ZM148.152 13.28C148.872 12.1067 149.806 11.1867 150.952 10.52C152.126 9.85333 153.459 9.52 154.952 9.52V15.4H153.472C151.712 15.4 150.379 15.8133 149.472 16.64C148.592 17.4667 148.152 18.9067 148.152 20.96V32H142.552V9.84H148.152V13.28ZM156.584 20.84C156.584 18.6 157.024 16.6133 157.904 14.88C158.811 13.1467 160.024 11.8133 161.544 10.88C163.091 9.94667 164.811 9.48 166.704 9.48C168.357 9.48 169.797 9.81333 171.024 10.48C172.277 11.1467 173.277 11.9867 174.024 13V9.84H179.664V32H174.024V28.76C173.304 29.8 172.304 30.6667 171.024 31.36C169.771 32.0267 168.317 32.36 166.664 32.36C164.797 32.36 163.091 31.88 161.544 30.92C160.024 29.96 158.811 28.6133 157.904 26.88C157.024 25.12 156.584 23.1067 156.584 20.84ZM174.024 20.92C174.024 19.56 173.757 18.4 173.224 17.44C172.691 16.4533 171.971 15.7067 171.064 15.2C170.157 14.6667 169.184 14.4 168.144 14.4C167.104 14.4 166.144 14.6533 165.264 15.16C164.384 15.6667 163.664 16.4133 163.104 17.4C162.571 18.36 162.304 19.5067 162.304 20.84C162.304 22.1733 162.571 23.3467 163.104 24.36C163.664 25.3467 164.384 26.1067 165.264 26.64C166.171 27.1733 167.131 27.44 168.144 27.44C169.184 27.44 170.157 27.1867 171.064 26.68C171.971 26.1467 172.691 25.4 173.224 24.44C173.757 23.4533 174.024 22.28 174.024 20.92Z" fill="#090909"/>
</svg>
