<svg width="35" height="35" viewBox="0 0 35 35" fill="none" xmlns="http://www.w3.org/2000/svg">
<rect x="0.5" y="0.5" width="34" height="34" rx="2.5" fill="white" stroke="#888888"/>
<g clip-path="url(#clip0_57_709)">
<path d="M24.2778 17.3183C24.2424 17.0569 24.2188 16.7955 24.1696 16.538C23.7189 14.1932 22.4122 12.4872 20.2829 11.4199C19.2399 10.8991 18.1221 10.6809 16.9571 10.7418C15.2154 10.8322 13.7139 11.4808 12.48 12.721C12.4485 12.7525 12.4249 12.7938 12.3934 12.837C11.6829 12.1275 10.9922 11.4376 10.2759 10.7222V16.8446H16.3391C15.428 15.9346 14.505 15.0128 13.584 14.0929C14.8159 12.7721 16.7898 12.0587 18.8719 12.7368C21.2295 13.5033 22.6385 15.7046 22.5145 18.0003C22.3847 20.3805 20.6666 22.3754 18.3464 22.8589C17.0692 23.1242 15.853 22.9375 14.7175 22.2889C13.5899 21.6443 12.8165 20.6949 12.3698 19.4822H10.512C10.6537 19.8596 10.7698 20.2291 10.9292 20.579C11.3622 21.5342 11.9781 22.3538 12.7771 23.0378C13.6942 23.824 14.7431 24.3468 15.9298 24.5807C16.223 24.6396 16.5241 24.6612 16.8232 24.6986C16.8724 24.7045 16.9216 24.7123 16.9708 24.7202H17.6813C17.7797 24.7084 17.8781 24.6966 17.9784 24.6868C19.3422 24.5354 20.5682 24.046 21.6368 23.1812C23.0085 22.0747 23.8587 20.6537 24.1696 18.9182C24.2168 18.6587 24.2424 18.3973 24.2778 18.1379C24.2778 17.8647 24.2778 17.5915 24.2778 17.3183V17.3183Z" fill="#888888"/>
</g>
<defs>
<clipPath id="clip0_57_709">
<rect width="14" height="14" fill="white" transform="matrix(-1 0 0 1 24.2778 10.7222)"/>
</clipPath>
</defs>
</svg>
