<svg width="36" height="36" viewBox="0 0 36 36" fill="none" xmlns="http://www.w3.org/2000/svg">
<path d="M28.845 22.89L25.035 22.455C24.587 22.4024 24.1329 22.452 23.7068 22.6001C23.2808 22.7482 22.8938 22.9909 22.575 23.31L19.815 26.07C15.5571 23.9039 12.0961 20.4429 9.93 16.185L12.705 13.41C13.35 12.765 13.665 11.865 13.56 10.95L13.125 7.17C13.0403 6.43813 12.6892 5.76303 12.1387 5.27339C11.5882 4.78374 10.8768 4.5138 10.14 4.515H7.545C5.85 4.515 4.44 5.925 4.545 7.62C5.34 20.43 15.585 30.66 28.38 31.455C30.075 31.56 31.485 30.15 31.485 28.455V25.86C31.5 24.345 30.36 23.07 28.845 22.89Z" fill="#333333"/>
</svg>
