<svg width="14" height="15" viewBox="0 0 14 15" fill="none" xmlns="http://www.w3.org/2000/svg">
<path d="M11.6414 7.33769C11.6414 8.36312 11.3407 9.36552 10.7773 10.2181C10.2138 11.0708 9.41303 11.7353 8.47609 12.1278C7.53914 12.5202 6.50815 12.623 5.51346 12.423C4.51877 12.223 3.60507 11.7293 2.88789 11.0043C2.1707 10.2793 1.68224 9.35551 1.48427 8.3498C1.2863 7.3441 1.38771 6.30163 1.77568 5.35421C2.16365 4.40678 2.82076 3.59695 3.66391 3.02711C4.50706 2.45727 5.49839 2.15302 6.51255 2.15283C7.18603 2.1527 7.85294 2.28672 8.4752 2.54723C9.09745 2.80773 9.66286 3.18963 10.1391 3.6711C10.6154 4.15257 10.9932 4.72419 11.251 5.35331C11.5087 5.98243 11.6414 6.65673 11.6414 7.33769V7.33769Z" stroke="white" stroke-width="2" stroke-linejoin="round"/>
<path d="M12.9231 13.8194L10.1346 11" stroke="white" stroke-width="2" stroke-linejoin="round"/>
</svg>
