<svg width="16" height="16" viewBox="0 0 16 16" fill="none" xmlns="http://www.w3.org/2000/svg">
<path d="M8 5.63346V8.30013M8.0332 10.3001V10.3668L7.9668 10.3665V10.3001H8.0332ZM2 11.8668V4.13346C2 3.38673 2 3.01308 2.14532 2.72786C2.27316 2.47698 2.47698 2.27316 2.72786 2.14532C3.01308 2 3.38673 2 4.13346 2H11.8668C12.6135 2 12.9864 2 13.2716 2.14532C13.5225 2.27316 13.727 2.47698 13.8548 2.72786C14 3.0128 14 3.386 14 4.13127V11.8691C14 12.6143 14 12.987 13.8548 13.2719C13.727 13.5228 13.5225 13.727 13.2716 13.8548C12.9867 14 12.614 14 11.8687 14H4.13127C3.386 14 3.0128 14 2.72786 13.8548C2.47698 13.727 2.27316 13.5228 2.14532 13.2719C2 12.9867 2 12.6135 2 11.8668Z" stroke="#E82841" stroke-width="1.5" stroke-linecap="round" stroke-linejoin="round"/>
</svg>
