<svg width="36" height="36" viewBox="0 0 36 36" fill="none" xmlns="http://www.w3.org/2000/svg">
<path d="M28.5 4.5H7.5C6.30653 4.5 5.16193 4.97411 4.31802 5.81802C3.47411 6.66193 3 7.80653 3 9V31.5C3.00046 31.7658 3.07153 32.0267 3.20595 32.256C3.34037 32.4853 3.5333 32.6748 3.765 32.805C3.98918 32.9321 4.24232 32.9992 4.5 33C4.76923 32.9999 5.03347 32.9274 5.265 32.79L12 28.71C12.2489 28.5618 12.5355 28.4889 12.825 28.5H28.5C29.6935 28.5 30.8381 28.0259 31.682 27.182C32.5259 26.3381 33 25.1935 33 24V9C33 7.80653 32.5259 6.66193 31.682 5.81802C30.8381 4.97411 29.6935 4.5 28.5 4.5ZM12 18C11.7033 18 11.4133 17.912 11.1666 17.7472C10.92 17.5824 10.7277 17.3481 10.6142 17.074C10.5006 16.7999 10.4709 16.4983 10.5288 16.2074C10.5867 15.9164 10.7296 15.6491 10.9393 15.4393C11.1491 15.2296 11.4164 15.0867 11.7074 15.0288C11.9983 14.9709 12.2999 15.0006 12.574 15.1142C12.8481 15.2277 13.0824 15.42 13.2472 15.6666C13.412 15.9133 13.5 16.2033 13.5 16.5C13.5 16.8978 13.342 17.2794 13.0607 17.5607C12.7794 17.842 12.3978 18 12 18ZM18 18C17.7033 18 17.4133 17.912 17.1666 17.7472C16.92 17.5824 16.7277 17.3481 16.6142 17.074C16.5006 16.7999 16.4709 16.4983 16.5288 16.2074C16.5867 15.9164 16.7296 15.6491 16.9393 15.4393C17.1491 15.2296 17.4164 15.0867 17.7074 15.0288C17.9983 14.9709 18.2999 15.0006 18.574 15.1142C18.8481 15.2277 19.0824 15.42 19.2472 15.6666C19.412 15.9133 19.5 16.2033 19.5 16.5C19.5 16.8978 19.342 17.2794 19.0607 17.5607C18.7794 17.842 18.3978 18 18 18ZM24 18C23.7033 18 23.4133 17.912 23.1666 17.7472C22.92 17.5824 22.7277 17.3481 22.6142 17.074C22.5006 16.7999 22.4709 16.4983 22.5288 16.2074C22.5867 15.9164 22.7296 15.6491 22.9393 15.4393C23.1491 15.2296 23.4164 15.0867 23.7074 15.0288C23.9983 14.9709 24.2999 15.0006 24.574 15.1142C24.8481 15.2277 25.0824 15.42 25.2472 15.6666C25.412 15.9133 25.5 16.2033 25.5 16.5C25.5 16.8978 25.342 17.2794 25.0607 17.5607C24.7794 17.842 24.3978 18 24 18Z" fill="#333333"/>
</svg>
