<svg width="24" height="24" viewBox="0 0 24 24" fill="none" xmlns="http://www.w3.org/2000/svg">
<path d="M16.6667 16.6H7.33333V8.9H16.6667M14.6667 4V5.4H9.33333V4H8V5.4H7.33333C6.59333 5.4 6 6.023 6 6.8V16.6C6 16.9713 6.14048 17.3274 6.39052 17.5899C6.64057 17.8525 6.97971 18 7.33333 18H16.6667C17.0203 18 17.3594 17.8525 17.6095 17.5899C17.8595 17.3274 18 16.9713 18 16.6V6.8C18 6.4287 17.8595 6.0726 17.6095 5.81005C17.3594 5.5475 17.0203 5.4 16.6667 5.4H16V4M15.3333 11.7H12V15.2H15.3333V11.7Z" fill="#333333"/>
</svg>
