<svg width="24" height="24" viewBox="0 0 24 24" fill="none" xmlns="http://www.w3.org/2000/svg">
<path d="M19.5044 9.58473L6.90513 3.28292C6.4079 3.03536 5.84644 2.94723 5.29731 3.03054C4.74818 3.11385 4.23809 3.36455 3.8366 3.74846C3.4351 4.13237 3.16174 4.63081 3.05378 5.17581C2.94583 5.72082 3.00852 6.28587 3.23333 6.79393L5.39321 11.6283C5.44222 11.7452 5.46746 11.8707 5.46746 11.9974C5.46746 12.1242 5.44222 12.2496 5.39321 12.3665L3.23333 17.2009C3.05037 17.6121 2.97303 18.0624 3.00832 18.5111C3.04362 18.9598 3.19044 19.3925 3.43544 19.77C3.68045 20.1475 4.01586 20.4577 4.41121 20.6725C4.80655 20.8873 5.2493 20.9999 5.6992 21C6.12058 20.9958 6.53569 20.8974 6.91413 20.7119L19.5134 14.4101C19.9604 14.1852 20.336 13.8405 20.5985 13.4145C20.861 12.9885 21 12.4979 21 11.9974C21 11.497 20.861 11.0064 20.5985 10.5803C20.336 10.1543 19.9604 9.80963 19.5134 9.58473H19.5044ZM18.7035 12.7987L6.10417 19.1005C5.93873 19.1799 5.75295 19.2069 5.57175 19.1777C5.39055 19.1486 5.22259 19.0647 5.09039 18.9374C4.95819 18.81 4.86807 18.6453 4.83212 18.4653C4.79617 18.2852 4.8161 18.0985 4.88924 17.9301L7.04012 13.0957C7.06797 13.0312 7.09201 12.965 7.11212 12.8977H13.3128C13.5515 12.8977 13.7804 12.8028 13.9491 12.634C14.1179 12.4652 14.2127 12.2362 14.2127 11.9974C14.2127 11.7587 14.1179 11.5297 13.9491 11.3608C13.7804 11.192 13.5515 11.0972 13.3128 11.0972H7.11212C7.09201 11.0298 7.06797 10.9637 7.04012 10.8991L4.88924 6.06472C4.8161 5.89634 4.79617 5.70961 4.83212 5.52958C4.86807 5.34955 4.95819 5.18481 5.09039 5.05746C5.22259 4.93012 5.39055 4.84625 5.57175 4.8171C5.75295 4.78795 5.93873 4.81492 6.10417 4.89439L18.7035 11.1962C18.8509 11.2717 18.9746 11.3865 19.061 11.5279C19.1474 11.6693 19.1931 11.8317 19.1931 11.9974C19.1931 12.1631 19.1474 12.3256 19.061 12.467C18.9746 12.6083 18.8509 12.7231 18.7035 12.7987Z" fill="#333333"/>
</svg>
