<svg width="18" height="18" viewBox="0 0 18 18" fill="none" xmlns="http://www.w3.org/2000/svg">
<path d="M16.23 12.26L13.69 11.97C13.3913 11.9349 13.0886 11.968 12.8046 12.0667C12.5205 12.1654 12.2625 12.3273 12.05 12.54L10.21 14.38C7.37139 12.9359 5.06406 10.6286 3.61999 7.79L5.47 5.94C5.9 5.51 6.10999 4.91 6.03999 4.3L5.74999 1.78C5.69351 1.29209 5.45946 0.842024 5.09246 0.515594C4.72545 0.189164 4.25116 0.00919825 3.76 0.010001H2.03C0.899995 0.010001 -0.0400051 0.950001 0.0299949 2.08C0.559995 10.62 7.39 17.44 15.92 17.97C17.05 18.04 17.99 17.1 17.99 15.97V14.24C18 13.23 17.24 12.38 16.23 12.26Z" fill="#fff"/>
</svg>
