<svg width="16" height="16" viewBox="0 0 16 16" fill="none" xmlns="http://www.w3.org/2000/svg">
<path d="M14 0H2C0.89543 0 0 0.89543 0 2V14C0 15.1046 0.89543 16 2 16H14C15.1046 16 16 15.1046 16 14V2C16 0.89543 15.1046 0 14 0Z" fill="white"/>
<path d="M14 0.5H2C1.17157 0.5 0.5 1.17157 0.5 2V14C0.5 14.8284 1.17157 15.5 2 15.5H14C14.8284 15.5 15.5 14.8284 15.5 14V2C15.5 1.17157 14.8284 0.5 14 0.5Z" stroke="#CFD2D8"/>
<path d="M14.222 2.81556e-07H1.778C1.54447 -0.000131172 1.31321 0.0457686 1.09743 0.135075C0.881658 0.224381 0.6856 0.355343 0.520471 0.520471C0.355343 0.6856 0.224381 0.881658 0.135075 1.09743C0.0457686 1.31321 -0.000131172 1.54447 2.81556e-07 1.778V14.222C-0.000131172 14.4555 0.0457686 14.6868 0.135075 14.9026C0.224381 15.1183 0.355343 15.3144 0.520471 15.4795C0.6856 15.6447 0.881658 15.7756 1.09743 15.8649C1.31321 15.9542 1.54447 16.0001 1.778 16H14.222C14.4555 16.0001 14.6868 15.9542 14.9026 15.8649C15.1183 15.7756 15.3144 15.6447 15.4795 15.4795C15.6447 15.3144 15.7756 15.1183 15.8649 14.9026C15.9542 14.6868 16.0001 14.4555 16 14.222V1.778C16.0001 1.54447 15.9542 1.31321 15.8649 1.09743C15.7756 0.881658 15.6447 0.6856 15.4795 0.520471C15.3144 0.355343 15.1183 0.224381 14.9026 0.135075C14.6868 0.0457686 14.4555 -0.000131172 14.222 2.81556e-07ZM6.222 12.444L1.778 8L3.031 6.747L6.222 9.929L12.969 3.182L14.222 4.444L6.222 12.444Z" fill="#CFD2D8"/>
</svg>
